<svg xmlns="http://www.w3.org/2000/svg" width="24" height="24" viewBox="0 0 24 24">
  <path d="M13.5,8c-1.93,0-3.5,1.57-3.5,3.5s1.57,3.5,3.5,3.5s3.5-1.57,3.5-3.5S15.43,8,13.5,8z M9.6,12.6C8.68,11.68,8,10.28,8,8.75 C8,5.33,10.33,3,13.75,3S19.5,5.33,19.5,8.75c0,1.53-0.68,2.93-1.6,3.85C17.93,13.72,18.73,15.18,19,16.75h-3.08 c-0.25-0.73-0.79-1.34-1.48-1.73c0.19-0.27,0.37-0.55,0.53-0.85c0.54-1.05,0.83-2.21,0.83-3.42c0-3.31-2.69-6-6-6s-6,2.69-6,6 c0,1.21,0.29,2.37,0.83,3.42c0.16,0.3,0.34,0.58,0.53,0.85c-0.69,0.39-1.23,1-1.48,1.73H5C5.27,15.18,6.07,13.72,9.6,12.6z"/>
  <path d="M0,0h24v24H0V0z" fill="none"/>
</svg>
