<?xml version="1.0" encoding="utf-8"?>
<!-- Generator: Adobe Illustrator 26.0.1, SVG Export Plug-In . SVG Version: 6.00 Build 0)  -->
<svg version="1.1" id="Layer_1" xmlns="http://www.w3.org/2000/svg" xmlns:xlink="http://www.w3.org/1999/xlink" x="0px" y="0px"
	 viewBox="0 0 500 500" style="enable-background:new 0 0 500 500;" xml:space="preserve">
<style type="text/css">
	.st0{display:none;}
	.st1{font-family:'BerlinSansFBDemi-Bold';}
	.st2{font-size:220px;}
	.st3{fill:#000000;}
	.st4{font-size:13.8387px;}
</style>
<text transform="matrix(1 0 0 1 143.5869 294.7827)" class="st0 st1 st2">GT</text>
<g>
	<path class="st3" d="M257,242.57c-0.96,15.88-3.8,71.54,1.04,103.66c0.3,2.01-1.33,3.73-3.26,3.45
		c-5.78-0.86-17.38-2.96-30.88-7.53c-0.79-0.27-1.65-0.18-2.36,0.26c-6.07,3.76-37.58,20.88-89.19,7.77
		C74.67,335.54,46.33,246.01,82.62,180.3c33.96-61.49,171.23-49.48,195.07-46.65c1.96,0.23,3.12,2.38,2.29,4.24
		c-3.28,7.34-9.5,24.97-6.31,47.45c0.31,2.17-1.69,3.92-3.7,3.28c-17.39-5.5-106.18-25.84-139.96,13.12
		c-39.41,45.45-0.41,97.73,27.67,97.31c21.67-0.33,35.7-4.49,40.98-6.37c1.36-0.49,2.17-1.92,1.91-3.39
		c-1.75-9.77-7.91-45.45-5.45-52.01c2.7-7.23,34.18,8.6,58.34,2.18C255.34,238.96,257.13,240.56,257,242.57z"/>
	<g>
		<path class="st3" d="M285.38,139.55c0.35,7.81,0.4,27.2-5.76,46.84c-0.36,1.14,0.39,2.32,1.54,2.4
			c5.97,0.39,21.92,1.16,26.12-1.27c0,0,5.85,62.77-1.33,159.92c-0.11,1.52,0.86,2.9,2.29,3.23c6.65,1.52,25.95,4.93,48.96,0.03
			c1.62-0.34,2.73-1.89,2.55-3.59c-1.56-14.28-7.67-79.1-0.68-162.39c0,0,3.24-7.24,67.87,0.5c1.78,0.21,3.25-1.45,2.87-3.27
			c-1.61-7.88-4.6-26.78-0.35-42.29c0.47-1.72-0.86-3.39-2.57-3.15c-16.88,2.37-87.19,11.1-138.29,0.22
			C286.89,136.35,285.3,137.73,285.38,139.55z"/>
		<text transform="matrix(0.9618 0 0 1 365.373 195.8123)"><tspan x="0" y="0" class="st3 st1 st4">By </tspan><tspan x="0" y="16.61" class="st3 st1 st4">cegedim-srh</tspan></text>
	</g>
</g>
</svg>
